<svg width="105" height="105" viewBox="0 0 105 105" fill="none" xmlns="http://www.w3.org/2000/svg">
<g clip-path="url(#clip0_22_76)">
<path d="M90 0H15C6.71573 0 0 6.71573 0 15V90C0 98.2843 6.71573 105 15 105H90C98.2843 105 105 98.2843 105 90V15C105 6.71573 98.2843 0 90 0Z" fill="#003244"/>
<path d="M61.0593 59.6607H44.3361C41.6437 59.6642 39.0627 60.7357 37.1593 62.6398C35.2558 64.5439 34.1856 67.1252 34.1831 69.8175C34.1861 72.5094 35.2567 75.0902 37.1602 76.9937C39.0636 78.8971 41.6442 79.9678 44.3361 79.9707H61.0593C63.7517 79.9683 66.3331 78.8978 68.2373 76.9944C70.1414 75.0909 71.2127 72.5099 71.2162 69.8175C71.2196 68.4833 70.9584 67.1617 70.4476 65.9291C69.9368 64.6964 69.1866 63.5772 68.2405 62.6364C67.2998 61.6901 66.1807 60.9398 64.948 60.429C63.7153 59.9183 62.3936 59.6571 61.0593 59.6607ZM55.8092 69.7351C55.8073 69.1225 55.9271 68.5157 56.1617 67.9499C56.3964 67.384 56.7412 66.8702 57.1761 66.4388C57.6077 66.0047 58.121 65.6605 58.6865 65.4262C59.252 65.1919 59.8585 65.0723 60.4706 65.074C61.083 65.0722 61.6896 65.1917 62.2555 65.426C62.8213 65.6603 63.3349 66.0045 63.7668 66.4388C64.201 66.8706 64.5453 67.3845 64.7796 67.9503C65.0139 68.5161 65.1336 69.1227 65.1318 69.7351C65.1334 70.3472 65.0136 70.9536 64.7793 71.519C64.545 72.0845 64.2008 72.5978 63.7668 73.0294C63.3347 73.4633 62.821 73.8071 62.2552 74.0411C61.6894 74.2751 61.0829 74.3946 60.4706 74.3927C59.2341 74.3932 58.0478 73.9027 57.1727 73.029C56.2976 72.1553 55.8052 70.9699 55.8037 69.7333L55.8092 69.7351ZM49.5974 69.7351C49.5992 70.3471 49.4798 70.9534 49.2458 71.5188C49.0118 72.0843 48.6681 72.5977 48.2344 73.0294C47.8027 73.4632 47.2893 73.8071 46.7238 74.0411C46.1583 74.2751 45.5518 74.3946 44.9399 74.3927C43.7046 74.3917 42.5201 73.9007 41.6463 73.0276C40.7724 72.1545 40.2807 70.9704 40.2787 69.7351C40.2769 69.1229 40.3965 68.5163 40.6305 67.9506C40.8644 67.3848 41.2083 66.871 41.6419 66.4388C42.0743 66.0048 42.5883 65.661 43.1544 65.4267C43.7204 65.1924 44.3272 65.0725 44.9399 65.074C45.552 65.0722 46.1585 65.1919 46.724 65.4262C47.2895 65.6605 47.8029 66.0046 48.2344 66.4388C48.667 66.8711 49.0096 67.3849 49.2426 67.9503C49.4756 68.5158 49.5943 69.1218 49.5919 69.7333L49.5974 69.7351Z" fill="white"/>
<path d="M79.9461 20.01H60.8455L70.2205 10.635H60.658L52.6838 18.6095L44.7093 10.635H35.1468L44.5312 20.01H25.0312C22.885 20.013 20.8277 20.8671 19.3103 22.3849C17.7929 23.9026 16.9392 25.9601 16.9368 28.1062V83.0175C16.9392 85.164 17.7932 87.222 19.311 88.7398C20.8288 90.2576 22.8865 91.1113 25.033 91.1138H40.125C43.8831 93.2447 48.1292 94.3657 52.4494 94.3671H52.4869C56.7951 94.3601 61.0282 93.2393 64.7756 91.1138H79.9424C82.0889 91.1113 84.1469 90.2576 85.6647 88.7398C87.1825 87.222 88.0362 85.164 88.0387 83.0175V28.1062C88.0362 25.9604 87.1829 23.9033 85.6659 22.3856C84.1489 20.8679 82.0919 20.0135 79.9461 20.01ZM23.6961 28.1062C23.6961 27.752 23.8367 27.4123 24.087 27.1617C24.3373 26.911 24.6769 26.7701 25.0312 26.7696H79.9406C80.295 26.7701 80.6348 26.911 80.8854 27.1617C81.136 27.4123 81.277 27.7518 81.2775 28.1062V83.0175C81.277 83.3719 81.136 83.7117 80.8854 83.9623C80.6348 84.2129 80.295 84.3539 79.9406 84.3544H62.8782L62.0588 84.8646C59.1752 86.6652 55.845 87.6226 52.4455 87.6283C49.0664 87.6238 45.7553 86.6784 42.883 84.8982L42.0094 84.3544H25.0275C24.6731 84.3539 24.3333 84.2129 24.0827 83.9623C23.8321 83.7117 23.6911 83.3719 23.6906 83.0175L23.6961 28.1062Z" fill="white"/>
<path d="M32.19 52.9501L36.1069 49.0333L40.0237 52.9501L44.803 48.1708L40.8862 44.254L44.803 40.3369L40.0237 35.5576L36.1069 39.4745L32.19 35.5576L27.4105 40.3369L31.3274 44.254L27.4105 48.1708L32.19 52.9501Z" fill="white"/>
<path d="M65.3773 52.9501L69.2942 49.0333L73.2112 52.9501L77.9905 48.1708L74.0737 44.254L77.9905 40.3369L73.2112 35.5576L69.2942 39.4745L65.3773 35.5576L60.598 40.3369L64.5149 44.254L60.598 48.1708L65.3773 52.9501Z" fill="white"/>
<g clip-path="url(#clip1_22_76)">
<path d="M90 -1H15C6.71573 -1 0 5.71573 0 14V89C0 97.2843 6.71573 104 15 104H90C98.2843 104 105 97.2843 105 89V14C105 5.71573 98.2843 -1 90 -1Z" fill="url(#paint0_linear_22_76)"/>
<path d="M61.0593 58.6607H44.3361C41.6437 58.6642 39.0627 59.7357 37.1593 61.6398C35.2558 63.5439 34.1856 66.1252 34.1831 68.8175C34.1861 71.5094 35.2567 74.0902 37.1602 75.9937C39.0636 77.8971 41.6442 78.9678 44.3361 78.9707H61.0593C63.7517 78.9683 66.3332 77.8978 68.2373 75.9944C70.1414 74.0909 71.2127 71.5099 71.2162 68.8175C71.2196 67.4833 70.9584 66.1617 70.4476 64.9291C69.9368 63.6964 69.1866 62.5772 68.2405 61.6364C67.2998 60.6901 66.1807 59.9398 64.948 59.429C63.7153 58.9183 62.3936 58.6571 61.0593 58.6607ZM55.8092 68.7351C55.8073 68.1225 55.9271 67.5157 56.1617 66.9499C56.3964 66.384 56.7412 65.8702 57.1761 65.4388C57.6077 65.0047 58.121 64.6605 58.6865 64.4262C59.252 64.1919 59.8585 64.0723 60.4706 64.074C61.083 64.0722 61.6897 64.1917 62.2555 64.426C62.8213 64.6603 63.3349 65.0045 63.7668 65.4388C64.201 65.8706 64.5453 66.3845 64.7796 66.9503C65.0139 67.5161 65.1336 68.1227 65.1318 68.7351C65.1334 69.3472 65.0136 69.9536 64.7793 70.519C64.545 71.0845 64.2008 71.5978 63.7668 72.0294C63.3347 72.4633 62.821 72.8071 62.2552 73.0411C61.6894 73.2751 61.0829 73.3946 60.4706 73.3927C59.2341 73.3932 58.0478 72.9027 57.1727 72.029C56.2976 71.1553 55.8052 69.9699 55.8037 68.7333L55.8092 68.7351ZM49.5974 68.7351C49.5992 69.3471 49.4798 69.9534 49.2458 70.5188C49.0118 71.0843 48.6681 71.5977 48.2344 72.0294C47.8027 72.4632 47.2893 72.8071 46.7238 73.0411C46.1583 73.2751 45.5518 73.3946 44.9399 73.3927C43.7046 73.3917 42.5201 72.9007 41.6463 72.0276C40.7724 71.1545 40.2807 69.9704 40.2787 68.7351C40.2769 68.1229 40.3965 67.5163 40.6305 66.9506C40.8644 66.3848 41.2083 65.871 41.6419 65.4388C42.0743 65.0048 42.5883 64.661 43.1544 64.4267C43.7204 64.1924 44.3272 64.0725 44.9399 64.074C45.552 64.0722 46.1585 64.1919 46.724 64.4262C47.2895 64.6605 47.8029 65.0046 48.2344 65.4388C48.667 65.8711 49.0096 66.3849 49.2426 66.9503C49.4756 67.5158 49.5943 68.1218 49.5919 68.7333L49.5974 68.7351Z" fill="white"/>
<path d="M79.9461 19.01H60.8455L70.2205 9.63501H60.658L52.6838 17.6095L44.7093 9.63501H35.1468L44.5312 19.01H25.0312C22.885 19.013 20.8277 19.8671 19.3103 21.3849C17.7929 22.9026 16.9392 24.9601 16.9368 27.1062V82.0175C16.9392 84.164 17.7932 86.222 19.311 87.7398C20.8288 89.2576 22.8865 90.1113 25.033 90.1137H40.125C43.8831 92.2447 48.1292 93.3657 52.4494 93.3671H52.4869C56.7951 93.3601 61.0282 92.2393 64.7756 90.1137H79.9425C82.089 90.1113 84.1469 89.2576 85.6647 87.7398C87.1825 86.222 88.0362 84.164 88.0387 82.0175V27.1062C88.0362 24.9604 87.1829 22.9033 85.6659 21.3856C84.1489 19.8679 82.092 19.0135 79.9461 19.01ZM23.6961 27.1062C23.6961 26.752 23.8367 26.4123 24.087 26.1616C24.3373 25.911 24.6769 25.7701 25.0312 25.7696H79.9406C80.295 25.7701 80.6348 25.911 80.8854 26.1616C81.136 26.4123 81.277 26.7518 81.2775 27.1062V82.0175C81.277 82.3719 81.136 82.7117 80.8854 82.9623C80.6348 83.2129 80.295 83.3539 79.9406 83.3544H62.8782L62.0588 83.8646C59.1752 85.6652 55.845 86.6226 52.4455 86.6283C49.0664 86.6238 45.7553 85.6784 42.883 83.8982L42.0094 83.3544H25.0275C24.6731 83.3539 24.3333 83.2129 24.0827 82.9623C23.8321 82.7117 23.6911 82.3719 23.6906 82.0175L23.6961 27.1062Z" fill="white"/>
<path d="M32.19 51.9501L36.1069 48.0333L40.0237 51.9501L44.803 47.1708L40.8862 43.254L44.803 39.3369L40.0237 34.5576L36.1069 38.4745L32.19 34.5576L27.4105 39.3369L31.3274 43.254L27.4105 47.1708L32.19 51.9501Z" fill="white"/>
<path d="M65.3773 51.9501L69.2942 48.0333L73.2112 51.9501L77.9905 47.1708L74.0737 43.254L77.9905 39.3369L73.2112 34.5576L69.2942 38.4745L65.3773 34.5576L60.598 39.3369L64.5149 43.254L60.598 47.1708L65.3773 51.9501Z" fill="white"/>
</g>
</g>
<defs>
<linearGradient id="paint0_linear_22_76" x1="52.5" y1="-1" x2="52.5" y2="104" gradientUnits="userSpaceOnUse">
<stop stop-color="#DA2CE8"/>
<stop offset="1" stop-color="#30BDEC"/>
</linearGradient>
<clipPath id="clip0_22_76">
<rect width="105" height="105" fill="white"/>
</clipPath>
<clipPath id="clip1_22_76">
<rect width="105" height="105" fill="white" transform="translate(0 -1)"/>
</clipPath>
</defs>
</svg>
